<svg width="40" height="40" viewBox="0 0 40 40" fill="none" xmlns="http://www.w3.org/2000/svg">
<path d="M21.7288 32.5L20 31.5064L23.9743 24.5513H29.9359C30.4629 24.5513 30.9684 24.3419 31.341 23.9692C31.7137 23.5966 31.9231 23.0911 31.9231 22.5641V10.641C31.9231 10.114 31.7137 9.60854 31.341 9.23587C30.9684 8.8632 30.4629 8.65384 29.9359 8.65384H10.0641C9.53705 8.65384 9.0316 8.8632 8.65893 9.23587C8.28626 9.60854 8.0769 10.114 8.0769 10.641V22.5641C8.0769 23.0911 8.28626 23.5966 8.65893 23.9692C9.0316 24.3419 9.53705 24.5513 10.0641 24.5513H19.0064V26.5385H10.0641C9.01002 26.5385 7.99912 26.1197 7.25378 25.3744C6.50845 24.6291 6.08972 23.6182 6.08972 22.5641V10.641C6.08972 9.58695 6.50845 8.57606 7.25378 7.83072C7.99912 7.08538 9.01002 6.66666 10.0641 6.66666H29.9359C30.9899 6.66666 32.0008 7.08538 32.7462 7.83072C33.4915 8.57606 33.9102 9.58695 33.9102 10.641V22.5641C33.9102 23.6182 33.4915 24.6291 32.7462 25.3744C32.0008 26.1197 30.9899 26.5385 29.9359 26.5385H25.1269L21.7288 32.5Z" fill="black"/>
<path d="M20.9938 11.6346H19.0066V15.6089H15.0323V17.5961H19.0066V21.5704H20.9938V17.5961H24.9682V15.6089H20.9938V11.6346Z" fill="black"/>
</svg>
