<svg width="40" height="40" viewBox="0 0 40 40" fill="none" xmlns="http://www.w3.org/2000/svg">
<path d="M25 28.3333C25.9205 28.3333 26.6667 27.5871 26.6667 26.6667C26.6667 25.7462 25.9205 25 25 25C24.0796 25 23.3334 25.7462 23.3334 26.6667C23.3334 27.5871 24.0796 28.3333 25 28.3333Z" fill="#222222"/>
<path d="M33.1011 26.9935C32.4574 25.4631 31.3468 24.1426 29.9068 23.1957C28.4668 22.2489 26.7607 21.7172 25 21.6667C23.2394 21.7172 21.5333 22.2489 20.0933 23.1957C18.6533 24.1426 17.5426 25.4631 16.899 26.9935L16.6667 27.5L16.899 28.0065C17.5426 29.5369 18.6533 30.8574 20.0933 31.8043C21.5333 32.7511 23.2394 33.2828 25 33.3333C26.7607 33.2828 28.4668 32.7511 29.9068 31.8043C31.3468 30.8574 32.4574 29.5369 33.1011 28.0065L33.3334 27.5L33.1011 26.9935ZM25 31.3889C24.1759 31.3889 23.3703 31.1608 22.6851 30.7335C21.9999 30.3062 21.4659 29.6988 21.1505 28.9882C20.8352 28.2776 20.7526 27.4957 20.9134 26.7413C21.0742 25.987 21.471 25.294 22.0537 24.7501C22.6365 24.2063 23.3789 23.8359 24.1871 23.6858C24.9954 23.5358 25.8332 23.6128 26.5945 23.9071C27.3559 24.2015 28.0066 24.6999 28.4645 25.3395C28.9223 25.979 29.1667 26.7309 29.1667 27.5C29.1653 28.531 28.7259 29.5194 27.9448 30.2484C27.1637 30.9775 26.1047 31.3876 25 31.3889Z" fill="#222222"/>
<path d="M14.0909 31.4286H8.7879V11.4286H11.9697V14.2857H24.697V11.4286H27.8788V20H30V11.4286C30 10.9234 29.7765 10.4389 29.3787 10.0817C28.9809 9.72449 28.4414 9.52381 27.8788 9.52381H24.697V8.57143C24.697 8.06626 24.4735 7.58178 24.0757 7.22456C23.6779 6.86735 23.1384 6.66667 22.5758 6.66667H14.0909C13.5283 6.66667 12.9888 6.86735 12.591 7.22456C12.1932 7.58178 11.9697 8.06626 11.9697 8.57143V9.52381H8.7879C8.22532 9.52381 7.68578 9.72449 7.28798 10.0817C6.89017 10.4389 6.66669 10.9234 6.66669 11.4286V31.4286C6.66669 31.9338 6.89017 32.4182 7.28798 32.7754C7.68578 33.1327 8.22532 33.3333 8.7879 33.3333H14.0909V31.4286ZM14.0909 8.57143H22.5758V12.381H14.0909V8.57143Z" fill="#222222"/>
</svg>
