<svg width="328" height="312" viewBox="0 0 328 312" fill="none" xmlns="http://www.w3.org/2000/svg">
<circle cx="164" cy="100" r="90" fill="white" stroke="#ECECEC" stroke-width="20"/>
<path d="M95.8665 158.803C84.5254 145.663 77.2263 129.523 74.8485 112.329C72.4707 95.1348 75.1157 77.6199 82.4648 61.8947C89.8139 46.1695 101.554 32.905 116.269 23.6994C130.985 14.4939 148.049 9.74013 165.404 10.011" stroke="#248AFD" stroke-width="20"/>
<path d="M164 10C179.529 10 194.794 14.0181 208.31 21.6636C221.827 29.3092 233.135 40.322 241.136 53.6315C249.137 66.9409 253.557 82.094 253.968 97.6176C254.38 113.141 250.767 128.507 243.482 142.221" stroke="#4B49AC" stroke-width="20"/>
<path d="M243.513 142.162C236.657 155.093 226.75 166.156 214.652 174.393C202.554 182.631 188.63 187.793 174.086 189.433C159.542 191.073 144.818 189.142 131.189 183.806C117.56 178.47 105.439 169.891 95.8745 158.813" stroke="#FFC100" stroke-width="20"/>
<path d="M141.325 119L153.725 88.7H138V83H160.175V88.7L147.825 119H141.325ZM178.61 119.75C176.26 119.75 174.143 119.2 172.26 118.1C170.393 116.983 168.91 115.442 167.81 113.475C166.71 111.508 166.16 109.25 166.16 106.7V95.75C166.16 93.0167 166.702 90.6417 167.785 88.625C168.885 86.6083 170.418 85.05 172.385 83.95C174.368 82.85 176.668 82.3 179.285 82.3C181.102 82.3 182.827 82.6083 184.46 83.225C186.093 83.825 187.543 84.7917 188.81 86.125L184.46 90.35C183.827 89.6 183.052 89.0083 182.135 88.575C181.235 88.1417 180.285 87.925 179.285 87.925C177.885 87.925 176.66 88.2583 175.61 88.925C174.56 89.575 173.743 90.4333 173.16 91.5C172.593 92.5667 172.31 93.7083 172.31 94.925V100.9L171.21 99.7C172.243 98.5 173.485 97.5667 174.935 96.9C176.385 96.2167 177.902 95.875 179.485 95.875C181.752 95.875 183.752 96.3917 185.485 97.425C187.218 98.4417 188.585 99.8417 189.585 101.625C190.585 103.392 191.085 105.408 191.085 107.675C191.085 109.925 190.51 111.967 189.36 113.8C188.227 115.617 186.718 117.067 184.835 118.15C182.952 119.217 180.877 119.75 178.61 119.75ZM178.61 113.975C179.777 113.975 180.843 113.7 181.81 113.15C182.777 112.583 183.543 111.825 184.11 110.875C184.693 109.908 184.985 108.842 184.985 107.675C184.985 106.508 184.702 105.442 184.135 104.475C183.568 103.508 182.802 102.742 181.835 102.175C180.885 101.592 179.827 101.3 178.66 101.3C177.493 101.3 176.427 101.592 175.46 102.175C174.493 102.742 173.727 103.508 173.16 104.475C172.593 105.442 172.31 106.508 172.31 107.675C172.31 108.808 172.585 109.858 173.135 110.825C173.702 111.775 174.46 112.542 175.41 113.125C176.377 113.692 177.443 113.975 178.61 113.975Z" fill="#222222"/>
<circle cx="10" cy="230" r="10" fill="#4B49AC"/>
<path d="M40.98 235V224.92H41.925L45.887 233.397L49.828 224.92H50.787V234.993H49.807V227.216L46.216 235H45.551L41.967 227.216V235H40.98ZM54.9145 235.21C54.3452 235.21 53.8668 235.107 53.4795 234.902C53.0968 234.697 52.8098 234.424 52.6185 234.083C52.4272 233.742 52.3315 233.371 52.3315 232.97C52.3315 232.559 52.4132 232.209 52.5765 231.92C52.7445 231.626 52.9708 231.386 53.2555 231.199C53.5448 231.012 53.8785 230.87 54.2565 230.772C54.6392 230.679 55.0615 230.597 55.5235 230.527C55.9902 230.452 56.4452 230.389 56.8885 230.338C57.3365 230.282 57.7285 230.228 58.0645 230.177L57.7005 230.401C57.7145 229.654 57.5698 229.101 57.2665 228.742C56.9632 228.383 56.4358 228.203 55.6845 228.203C55.1665 228.203 54.7278 228.32 54.3685 228.553C54.0138 228.786 53.7642 229.155 53.6195 229.659L52.6185 229.365C52.7912 228.688 53.1388 228.163 53.6615 227.79C54.1842 227.417 54.8632 227.23 55.6985 227.23C56.3892 227.23 56.9748 227.361 57.4555 227.622C57.9408 227.879 58.2838 228.252 58.4845 228.742C58.5778 228.961 58.6385 229.206 58.6665 229.477C58.6945 229.748 58.7085 230.023 58.7085 230.303V235H57.7915V233.103L58.0575 233.215C57.8008 233.864 57.4018 234.358 56.8605 234.699C56.3192 235.04 55.6705 235.21 54.9145 235.21ZM55.0335 234.321C55.5142 234.321 55.9342 234.235 56.2935 234.062C56.6528 233.889 56.9422 233.654 57.1615 233.355C57.3808 233.052 57.5232 232.711 57.5885 232.333C57.6445 232.09 57.6748 231.824 57.6795 231.535C57.6842 231.241 57.6865 231.022 57.6865 230.877L58.0785 231.08C57.7285 231.127 57.3482 231.173 56.9375 231.22C56.5315 231.267 56.1302 231.32 55.7335 231.381C55.3415 231.442 54.9868 231.514 54.6695 231.598C54.4548 231.659 54.2472 231.745 54.0465 231.857C53.8458 231.964 53.6802 232.109 53.5495 232.291C53.4235 232.473 53.3605 232.699 53.3605 232.97C53.3605 233.189 53.4142 233.402 53.5215 233.607C53.6335 233.812 53.8108 233.983 54.0535 234.118C54.3008 234.253 54.6275 234.321 55.0335 234.321ZM60.5308 235V227.44H61.4548V229.26L61.2728 229.022C61.3568 228.798 61.4664 228.593 61.6018 228.406C61.7371 228.215 61.8841 228.058 62.0428 227.937C62.2388 227.764 62.4674 227.634 62.7288 227.545C62.9901 227.452 63.2538 227.398 63.5198 227.384C63.7858 227.365 64.0284 227.384 64.2478 227.44V228.406C63.9724 228.336 63.6714 228.32 63.3448 228.357C63.0181 228.394 62.7171 228.525 62.4418 228.749C62.1898 228.945 62.0008 229.181 61.8748 229.456C61.7488 229.727 61.6648 230.016 61.6228 230.324C61.5808 230.627 61.5598 230.928 61.5598 231.227V235H60.5308ZM65.5687 235L65.5757 224.92H66.6117V231.08L69.9857 227.44H71.3577L67.8157 231.22L71.8197 235H70.3217L66.6117 231.36V235H65.5687ZM75.5833 235.21C74.846 235.21 74.2066 235.047 73.6653 234.72C73.1286 234.393 72.711 233.934 72.4123 233.341C72.1136 232.748 71.9643 232.053 71.9643 231.255C71.9643 230.429 72.1113 229.715 72.4053 229.113C72.6993 228.511 73.1123 228.047 73.6443 227.72C74.181 227.393 74.8133 227.23 75.5413 227.23C76.288 227.23 76.925 227.403 77.4523 227.748C77.9796 228.089 78.3786 228.579 78.6493 229.218C78.92 229.857 79.0436 230.62 79.0203 231.507H77.9703V231.143C77.9516 230.163 77.7393 229.423 77.3333 228.924C76.932 228.425 76.344 228.175 75.5693 228.175C74.7573 228.175 74.1343 228.439 73.7003 228.966C73.271 229.493 73.0563 230.245 73.0563 231.22C73.0563 232.172 73.271 232.912 73.7003 233.439C74.1343 233.962 74.748 234.223 75.5413 234.223C76.0826 234.223 76.554 234.099 76.9553 233.852C77.3613 233.6 77.681 233.238 77.9143 232.767L78.8733 233.138C78.5746 233.796 78.1336 234.307 77.5503 234.671C76.9716 235.03 76.316 235.21 75.5833 235.21ZM72.6923 231.507V230.646H78.4673V231.507H72.6923ZM84.6898 235C84.2651 235.089 83.8451 235.124 83.4298 235.105C83.0191 235.086 82.6504 234.998 82.3238 234.839C82.0018 234.68 81.7568 234.433 81.5888 234.097C81.4534 233.817 81.3788 233.535 81.3648 233.25C81.3554 232.961 81.3508 232.632 81.3508 232.263V225.34H82.3728V232.221C82.3728 232.538 82.3751 232.804 82.3798 233.019C82.3891 233.229 82.4381 233.416 82.5268 233.579C82.6948 233.892 82.9608 234.078 83.3248 234.139C83.6934 234.2 84.1484 234.186 84.6898 234.097V235ZM79.7338 228.322V227.44H84.6898V228.322H79.7338ZM86.3192 226.005V224.85H87.3482V226.005H86.3192ZM86.3192 235V227.44H87.3482V235H86.3192ZM94.9068 235V231.143C94.9068 230.723 94.8671 230.338 94.7878 229.988C94.7085 229.633 94.5801 229.325 94.4028 229.064C94.2301 228.798 94.0038 228.593 93.7238 228.448C93.4485 228.303 93.1125 228.231 92.7158 228.231C92.3518 228.231 92.0298 228.294 91.7498 228.42C91.4745 228.546 91.2411 228.728 91.0498 228.966C90.8631 229.199 90.7208 229.484 90.6228 229.82C90.5248 230.156 90.4758 230.539 90.4758 230.968L89.7478 230.807C89.7478 230.032 89.8831 229.381 90.1538 228.854C90.4245 228.327 90.7978 227.928 91.2738 227.657C91.7498 227.386 92.2958 227.251 92.9118 227.251C93.3645 227.251 93.7588 227.321 94.0948 227.461C94.4355 227.601 94.7225 227.79 94.9558 228.028C95.1938 228.266 95.3851 228.539 95.5298 228.847C95.6745 229.15 95.7795 229.475 95.8448 229.82C95.9101 230.161 95.9428 230.501 95.9428 230.842V235H94.9068ZM89.4398 235V227.44H90.3708V229.302H90.4758V235H89.4398ZM100.762 238.57C100.375 238.57 99.9923 238.512 99.6143 238.395C99.241 238.283 98.8956 238.103 98.5783 237.856C98.261 237.613 97.995 237.296 97.7803 236.904L98.7113 236.386C98.9213 236.806 99.2153 237.107 99.5933 237.289C99.976 237.476 100.366 237.569 100.762 237.569C101.308 237.569 101.749 237.466 102.085 237.261C102.426 237.06 102.673 236.762 102.827 236.365C102.981 235.968 103.056 235.474 103.051 234.881V232.865H103.17V227.44H104.087V234.895C104.087 235.11 104.08 235.315 104.066 235.511C104.057 235.712 104.036 235.908 104.003 236.099C103.915 236.664 103.73 237.128 103.45 237.492C103.175 237.856 102.811 238.127 102.358 238.304C101.91 238.481 101.378 238.57 100.762 238.57ZM100.692 235.21C99.9876 235.21 99.3856 235.035 98.8863 234.685C98.387 234.33 98.0043 233.852 97.7383 233.25C97.4723 232.648 97.3393 231.969 97.3393 231.213C97.3393 230.462 97.47 229.785 97.7313 229.183C97.9973 228.581 98.3776 228.105 98.8723 227.755C99.367 227.405 99.9596 227.23 100.65 227.23C101.36 227.23 101.957 227.403 102.442 227.748C102.928 228.093 103.294 228.567 103.541 229.169C103.793 229.766 103.919 230.448 103.919 231.213C103.919 231.964 103.796 232.643 103.548 233.25C103.301 233.852 102.937 234.33 102.456 234.685C101.976 235.035 101.388 235.21 100.692 235.21ZM100.797 234.251C101.334 234.251 101.777 234.12 102.127 233.859C102.477 233.598 102.739 233.238 102.911 232.781C103.084 232.319 103.17 231.796 103.17 231.213C103.17 230.62 103.084 230.098 102.911 229.645C102.739 229.188 102.477 228.831 102.127 228.574C101.782 228.317 101.346 228.189 100.818 228.189C100.277 228.189 99.829 228.322 99.4743 228.588C99.1196 228.854 98.856 229.216 98.6833 229.673C98.5153 230.13 98.4313 230.644 98.4313 231.213C98.4313 231.787 98.5176 232.305 98.6903 232.767C98.8676 233.224 99.1313 233.586 99.4813 233.852C99.8313 234.118 100.27 234.251 100.797 234.251Z" fill="black"/>
<path d="M292.596 235.21C291.966 235.21 291.408 235.084 290.923 234.832C290.442 234.58 290.064 234.228 289.789 233.775C289.518 233.318 289.383 232.783 289.383 232.172C289.383 231.547 289.535 230.991 289.838 230.506C290.141 230.016 290.603 229.645 291.224 229.393L291.21 229.799C290.692 229.608 290.298 229.295 290.027 228.861C289.756 228.427 289.621 227.946 289.621 227.419C289.621 226.859 289.749 226.378 290.006 225.977C290.263 225.571 290.613 225.258 291.056 225.039C291.504 224.82 292.017 224.71 292.596 224.71C293.175 224.71 293.688 224.82 294.136 225.039C294.584 225.258 294.936 225.571 295.193 225.977C295.45 226.378 295.578 226.859 295.578 227.419C295.578 227.946 295.447 228.425 295.186 228.854C294.929 229.283 294.535 229.598 294.003 229.799L293.968 229.393C294.589 229.64 295.053 230.009 295.361 230.499C295.674 230.989 295.83 231.547 295.83 232.172C295.83 232.783 295.692 233.318 295.417 233.775C295.142 234.228 294.761 234.58 294.276 234.832C293.791 235.084 293.231 235.21 292.596 235.21ZM292.596 234.223C293.231 234.223 293.746 234.048 294.143 233.698C294.54 233.343 294.738 232.835 294.738 232.172C294.738 231.5 294.542 230.991 294.15 230.646C293.758 230.296 293.24 230.121 292.596 230.121C291.952 230.121 291.436 230.296 291.049 230.646C290.662 230.991 290.468 231.5 290.468 232.172C290.468 232.835 290.664 233.343 291.056 233.698C291.448 234.048 291.961 234.223 292.596 234.223ZM292.596 229.127C293.156 229.127 293.611 228.985 293.961 228.7C294.311 228.411 294.486 227.984 294.486 227.419C294.486 226.854 294.311 226.432 293.961 226.152C293.611 225.867 293.156 225.725 292.596 225.725C292.036 225.725 291.581 225.867 291.231 226.152C290.886 226.432 290.713 226.854 290.713 227.419C290.713 227.984 290.886 228.411 291.231 228.7C291.581 228.985 292.036 229.127 292.596 229.127ZM300.717 235.21C300.087 235.21 299.529 235.084 299.044 234.832C298.563 234.58 298.185 234.228 297.91 233.775C297.639 233.318 297.504 232.783 297.504 232.172C297.504 231.547 297.656 230.991 297.959 230.506C298.262 230.016 298.724 229.645 299.345 229.393L299.331 229.799C298.813 229.608 298.419 229.295 298.148 228.861C297.877 228.427 297.742 227.946 297.742 227.419C297.742 226.859 297.87 226.378 298.127 225.977C298.384 225.571 298.734 225.258 299.177 225.039C299.625 224.82 300.138 224.71 300.717 224.71C301.296 224.71 301.809 224.82 302.257 225.039C302.705 225.258 303.057 225.571 303.314 225.977C303.571 226.378 303.699 226.859 303.699 227.419C303.699 227.946 303.568 228.425 303.307 228.854C303.05 229.283 302.656 229.598 302.124 229.799L302.089 229.393C302.71 229.64 303.174 230.009 303.482 230.499C303.795 230.989 303.951 231.547 303.951 232.172C303.951 232.783 303.813 233.318 303.538 233.775C303.263 234.228 302.882 234.58 302.397 234.832C301.912 235.084 301.352 235.21 300.717 235.21ZM300.717 234.223C301.352 234.223 301.867 234.048 302.264 233.698C302.661 233.343 302.859 232.835 302.859 232.172C302.859 231.5 302.663 230.991 302.271 230.646C301.879 230.296 301.361 230.121 300.717 230.121C300.073 230.121 299.557 230.296 299.17 230.646C298.783 230.991 298.589 231.5 298.589 232.172C298.589 232.835 298.785 233.343 299.177 233.698C299.569 234.048 300.082 234.223 300.717 234.223ZM300.717 229.127C301.277 229.127 301.732 228.985 302.082 228.7C302.432 228.411 302.607 227.984 302.607 227.419C302.607 226.854 302.432 226.432 302.082 226.152C301.732 225.867 301.277 225.725 300.717 225.725C300.157 225.725 299.702 225.867 299.352 226.152C299.007 226.432 298.834 226.854 298.834 227.419C298.834 227.984 299.007 228.411 299.352 228.7C299.702 228.985 300.157 229.127 300.717 229.127ZM308.474 235.203C307.975 235.203 307.515 235.114 307.095 234.937C306.675 234.76 306.313 234.508 306.01 234.181C305.707 233.85 305.485 233.455 305.345 232.998L306.325 232.704C306.493 233.203 306.768 233.581 307.151 233.838C307.538 234.095 307.975 234.218 308.46 234.209C308.908 234.2 309.293 234.099 309.615 233.908C309.942 233.717 310.191 233.451 310.364 233.11C310.537 232.769 310.623 232.375 310.623 231.927C310.623 231.241 310.422 230.69 310.021 230.275C309.624 229.855 309.099 229.645 308.446 229.645C308.264 229.645 308.073 229.671 307.872 229.722C307.671 229.769 307.485 229.836 307.312 229.925L306.794 229.106L310.714 225.487L310.882 225.907H305.744V224.92H311.568V225.921L308.152 229.183L308.138 228.777C308.838 228.688 309.454 228.768 309.986 229.015C310.518 229.262 310.933 229.64 311.232 230.149C311.535 230.653 311.687 231.246 311.687 231.927C311.687 232.571 311.547 233.14 311.267 233.635C310.992 234.125 310.611 234.51 310.126 234.79C309.641 235.065 309.09 235.203 308.474 235.203ZM316.212 235.203C315.713 235.203 315.253 235.114 314.833 234.937C314.413 234.76 314.052 234.508 313.748 234.181C313.445 233.85 313.223 233.455 313.083 232.998L314.063 232.704C314.231 233.203 314.507 233.581 314.889 233.838C315.277 234.095 315.713 234.218 316.198 234.209C316.646 234.2 317.031 234.099 317.353 233.908C317.68 233.717 317.93 233.451 318.102 233.11C318.275 232.769 318.361 232.375 318.361 231.927C318.361 231.241 318.161 230.69 317.759 230.275C317.363 229.855 316.838 229.645 316.184 229.645C316.002 229.645 315.811 229.671 315.61 229.722C315.41 229.769 315.223 229.836 315.05 229.925L314.532 229.106L318.452 225.487L318.62 225.907H313.482V224.92H319.306V225.921L315.89 229.183L315.876 228.777C316.576 228.688 317.192 228.768 317.724 229.015C318.256 229.262 318.672 229.64 318.97 230.149C319.274 230.653 319.425 231.246 319.425 231.927C319.425 232.571 319.285 233.14 319.005 233.635C318.73 234.125 318.35 234.51 317.864 234.79C317.379 235.065 316.828 235.203 316.212 235.203ZM323.951 235.203C323.451 235.203 322.992 235.114 322.572 234.937C322.152 234.76 321.79 234.508 321.487 234.181C321.183 233.85 320.962 233.455 320.822 232.998L321.802 232.704C321.97 233.203 322.245 233.581 322.628 233.838C323.015 234.095 323.451 234.218 323.937 234.209C324.385 234.2 324.77 234.099 325.092 233.908C325.418 233.717 325.668 233.451 325.841 233.11C326.013 232.769 326.1 232.375 326.1 231.927C326.1 231.241 325.899 230.69 325.498 230.275C325.101 229.855 324.576 229.645 323.923 229.645C323.741 229.645 323.549 229.671 323.349 229.722C323.148 229.769 322.961 229.836 322.789 229.925L322.271 229.106L326.191 225.487L326.359 225.907H321.221V224.92H327.045V225.921L323.629 229.183L323.615 228.777C324.315 228.688 324.931 228.768 325.463 229.015C325.995 229.262 326.41 229.64 326.709 230.149C327.012 230.653 327.164 231.246 327.164 231.927C327.164 232.571 327.024 233.14 326.744 233.635C326.468 234.125 326.088 234.51 325.603 234.79C325.117 235.065 324.567 235.203 323.951 235.203Z" fill="black"/>
<circle cx="10" cy="266" r="10" fill="#FFC100"/>
<path d="M40.98 271V260.92H44.039C44.1463 260.92 44.3283 260.922 44.585 260.927C44.8463 260.932 45.096 260.95 45.334 260.983C46.0993 261.09 46.7387 261.375 47.252 261.837C47.7653 262.299 48.1503 262.887 48.407 263.601C48.6637 264.315 48.792 265.101 48.792 265.96C48.792 266.819 48.6637 267.605 48.407 268.319C48.1503 269.033 47.7653 269.621 47.252 270.083C46.7387 270.545 46.0993 270.83 45.334 270.937C45.1007 270.965 44.851 270.984 44.585 270.993C44.319 270.998 44.137 271 44.039 271H40.98ZM42.044 270.013H44.039C44.2303 270.013 44.4357 270.008 44.655 269.999C44.879 269.985 45.0703 269.962 45.229 269.929C45.817 269.826 46.2907 269.588 46.65 269.215C47.014 268.842 47.28 268.375 47.448 267.815C47.616 267.25 47.7 266.632 47.7 265.96C47.7 265.283 47.616 264.663 47.448 264.098C47.28 263.533 47.014 263.067 46.65 262.698C46.286 262.329 45.8123 262.094 45.229 261.991C45.0703 261.958 44.8767 261.937 44.648 261.928C44.424 261.914 44.221 261.907 44.039 261.907H42.044V270.013ZM53.5853 271.21C52.8479 271.21 52.2086 271.047 51.6673 270.72C51.1306 270.393 50.7129 269.934 50.4143 269.341C50.1156 268.748 49.9663 268.053 49.9663 267.255C49.9663 266.429 50.1133 265.715 50.4073 265.113C50.7013 264.511 51.1143 264.047 51.6463 263.72C52.1829 263.393 52.8153 263.23 53.5433 263.23C54.2899 263.23 54.9269 263.403 55.4543 263.748C55.9816 264.089 56.3806 264.579 56.6513 265.218C56.9219 265.857 57.0456 266.62 57.0223 267.507H55.9723V267.143C55.9536 266.163 55.7413 265.423 55.3353 264.924C54.9339 264.425 54.3459 264.175 53.5713 264.175C52.7593 264.175 52.1363 264.439 51.7023 264.966C51.2729 265.493 51.0583 266.245 51.0583 267.22C51.0583 268.172 51.2729 268.912 51.7023 269.439C52.1363 269.962 52.7499 270.223 53.5433 270.223C54.0846 270.223 54.5559 270.099 54.9573 269.852C55.3633 269.6 55.6829 269.238 55.9163 268.767L56.8753 269.138C56.5766 269.796 56.1356 270.307 55.5523 270.671C54.9736 271.03 54.3179 271.21 53.5853 271.21ZM50.6943 267.507V266.646H56.4693V267.507H50.6943ZM60.3463 271L57.6023 263.44H58.6453L60.8783 269.656L63.0973 263.44H64.1543L61.4103 271H60.3463ZM68.3372 271.21C67.5999 271.21 66.9605 271.047 66.4192 270.72C65.8825 270.393 65.4649 269.934 65.1662 269.341C64.8675 268.748 64.7182 268.053 64.7182 267.255C64.7182 266.429 64.8652 265.715 65.1592 265.113C65.4532 264.511 65.8662 264.047 66.3982 263.72C66.9349 263.393 67.5672 263.23 68.2952 263.23C69.0419 263.23 69.6789 263.403 70.2062 263.748C70.7335 264.089 71.1325 264.579 71.4032 265.218C71.6739 265.857 71.7975 266.62 71.7742 267.507H70.7242V267.143C70.7055 266.163 70.4932 265.423 70.0872 264.924C69.6859 264.425 69.0979 264.175 68.3232 264.175C67.5112 264.175 66.8882 264.439 66.4542 264.966C66.0249 265.493 65.8102 266.245 65.8102 267.22C65.8102 268.172 66.0249 268.912 66.4542 269.439C66.8882 269.962 67.5019 270.223 68.2952 270.223C68.8365 270.223 69.3079 270.099 69.7092 269.852C70.1152 269.6 70.4349 269.238 70.6682 268.767L71.6272 269.138C71.3285 269.796 70.8875 270.307 70.3042 270.671C69.7255 271.03 69.0699 271.21 68.3372 271.21ZM65.4462 267.507V266.646H71.2212V267.507H65.4462ZM73.4677 271V260.71H74.4967V271H73.4677ZM79.7522 271.21C79.0009 271.21 78.3592 271.04 77.8272 270.699C77.2952 270.358 76.8869 269.887 76.6022 269.285C76.3176 268.683 76.1752 267.992 76.1752 267.213C76.1752 266.42 76.3199 265.724 76.6092 265.127C76.8986 264.53 77.3092 264.065 77.8412 263.734C78.3779 263.398 79.0149 263.23 79.7522 263.23C80.5082 263.23 81.1522 263.4 81.6842 263.741C82.2209 264.077 82.6292 264.546 82.9092 265.148C83.1939 265.745 83.3362 266.434 83.3362 267.213C83.3362 268.006 83.1939 268.704 82.9092 269.306C82.6246 269.903 82.2139 270.37 81.6772 270.706C81.1406 271.042 80.4989 271.21 79.7522 271.21ZM79.7522 270.223C80.5922 270.223 81.2176 269.945 81.6282 269.39C82.0389 268.83 82.2442 268.104 82.2442 267.213C82.2442 266.298 82.0366 265.57 81.6212 265.029C81.2106 264.488 80.5876 264.217 79.7522 264.217C79.1876 264.217 78.7209 264.345 78.3522 264.602C77.9882 264.854 77.7152 265.206 77.5332 265.659C77.3559 266.107 77.2672 266.625 77.2672 267.213C77.2672 268.123 77.4772 268.853 77.8972 269.404C78.3172 269.95 78.9356 270.223 79.7522 270.223ZM88.2754 271.21C87.5801 271.21 86.9921 271.035 86.5114 270.685C86.0307 270.33 85.6667 269.852 85.4194 269.25C85.1721 268.643 85.0484 267.964 85.0484 267.213C85.0484 266.448 85.1721 265.766 85.4194 265.169C85.6714 264.567 86.0401 264.093 86.5254 263.748C87.0107 263.403 87.6081 263.23 88.3174 263.23C89.0081 263.23 89.6007 263.405 90.0954 263.755C90.5901 264.105 90.9681 264.581 91.2294 265.183C91.4954 265.785 91.6284 266.462 91.6284 267.213C91.6284 267.969 91.4954 268.648 91.2294 269.25C90.9634 269.852 90.5807 270.33 90.0814 270.685C89.5821 271.035 88.9801 271.21 88.2754 271.21ZM84.8734 274.36V263.44H85.7974V269.131H85.9094V274.36H84.8734ZM88.1704 270.251C88.6977 270.251 89.1364 270.118 89.4864 269.852C89.8364 269.586 90.0977 269.224 90.2704 268.767C90.4477 268.305 90.5364 267.787 90.5364 267.213C90.5364 266.644 90.4501 266.13 90.2774 265.673C90.1047 265.216 89.8411 264.854 89.4864 264.588C89.1364 264.322 88.6907 264.189 88.1494 264.189C87.6221 264.189 87.1834 264.317 86.8334 264.574C86.4881 264.831 86.2291 265.188 86.0564 265.645C85.8837 266.098 85.7974 266.62 85.7974 267.213C85.7974 267.796 85.8837 268.319 86.0564 268.781C86.2291 269.238 86.4904 269.598 86.8404 269.859C87.1904 270.12 87.6337 270.251 88.1704 270.251ZM93.3055 262.005V260.85H94.3345V262.005H93.3055ZM93.3055 271V263.44H94.3345V271H93.3055ZM101.893 271V267.143C101.893 266.723 101.853 266.338 101.774 265.988C101.695 265.633 101.566 265.325 101.389 265.064C101.216 264.798 100.99 264.593 100.71 264.448C100.435 264.303 100.099 264.231 99.7021 264.231C99.3381 264.231 99.0161 264.294 98.7361 264.42C98.4608 264.546 98.2275 264.728 98.0361 264.966C97.8495 265.199 97.7071 265.484 97.6091 265.82C97.5111 266.156 97.4621 266.539 97.4621 266.968L96.7341 266.807C96.7341 266.032 96.8695 265.381 97.1401 264.854C97.4108 264.327 97.7841 263.928 98.2601 263.657C98.7361 263.386 99.2821 263.251 99.8981 263.251C100.351 263.251 100.745 263.321 101.081 263.461C101.422 263.601 101.709 263.79 101.942 264.028C102.18 264.266 102.371 264.539 102.516 264.847C102.661 265.15 102.766 265.475 102.831 265.82C102.896 266.161 102.929 266.501 102.929 266.842V271H101.893ZM96.4261 271V263.44H97.3571V265.302H97.4621V271H96.4261ZM107.749 274.57C107.361 274.57 106.979 274.512 106.601 274.395C106.227 274.283 105.882 274.103 105.565 273.856C105.247 273.613 104.981 273.296 104.767 272.904L105.698 272.386C105.908 272.806 106.202 273.107 106.58 273.289C106.962 273.476 107.352 273.569 107.749 273.569C108.295 273.569 108.736 273.466 109.072 273.261C109.412 273.06 109.66 272.762 109.814 272.365C109.968 271.968 110.042 271.474 110.038 270.881V268.865H110.157V263.44H111.074V270.895C111.074 271.11 111.067 271.315 111.053 271.511C111.043 271.712 111.022 271.908 110.99 272.099C110.901 272.664 110.717 273.128 110.437 273.492C110.161 273.856 109.797 274.127 109.345 274.304C108.897 274.481 108.365 274.57 107.749 274.57ZM107.679 271.21C106.974 271.21 106.372 271.035 105.873 270.685C105.373 270.33 104.991 269.852 104.725 269.25C104.459 268.648 104.326 267.969 104.326 267.213C104.326 266.462 104.456 265.785 104.718 265.183C104.984 264.581 105.364 264.105 105.859 263.755C106.353 263.405 106.946 263.23 107.637 263.23C108.346 263.23 108.943 263.403 109.429 263.748C109.914 264.093 110.28 264.567 110.528 265.169C110.78 265.766 110.906 266.448 110.906 267.213C110.906 267.964 110.782 268.643 110.535 269.25C110.287 269.852 109.923 270.33 109.443 270.685C108.962 271.035 108.374 271.21 107.679 271.21ZM107.784 270.251C108.32 270.251 108.764 270.12 109.114 269.859C109.464 269.598 109.725 269.238 109.898 268.781C110.07 268.319 110.157 267.796 110.157 267.213C110.157 266.62 110.07 266.098 109.898 265.645C109.725 265.188 109.464 264.831 109.114 264.574C108.768 264.317 108.332 264.189 107.805 264.189C107.263 264.189 106.815 264.322 106.461 264.588C106.106 264.854 105.842 265.216 105.67 265.673C105.502 266.13 105.418 266.644 105.418 267.213C105.418 267.787 105.504 268.305 105.677 268.767C105.854 269.224 106.118 269.586 106.468 269.852C106.818 270.118 107.256 270.251 107.784 270.251Z" fill="black"/>
<path d="M290.061 271.21C289.431 271.21 288.857 271.058 288.339 270.755C287.826 270.447 287.415 270.032 287.107 269.509C286.804 268.982 286.652 268.389 286.652 267.731V264.238C286.652 263.561 286.804 262.959 287.107 262.432C287.41 261.9 287.823 261.482 288.346 261.179C288.873 260.871 289.471 260.717 290.138 260.717C290.712 260.717 291.244 260.843 291.734 261.095C292.229 261.347 292.632 261.699 292.945 262.152L292.154 262.803C291.939 262.467 291.655 262.199 291.3 261.998C290.945 261.797 290.558 261.697 290.138 261.697C289.667 261.697 289.247 261.811 288.878 262.04C288.509 262.269 288.22 262.57 288.01 262.943C287.8 263.312 287.695 263.713 287.695 264.147V266.345L287.436 266.051C287.73 265.589 288.115 265.216 288.591 264.931C289.072 264.646 289.594 264.504 290.159 264.504C290.784 264.504 291.347 264.653 291.846 264.952C292.345 265.246 292.742 265.645 293.036 266.149C293.33 266.653 293.477 267.218 293.477 267.843C293.477 268.464 293.321 269.028 293.008 269.537C292.7 270.046 292.287 270.452 291.769 270.755C291.256 271.058 290.686 271.21 290.061 271.21ZM290.061 270.209C290.5 270.209 290.899 270.104 291.258 269.894C291.622 269.684 291.909 269.399 292.119 269.04C292.334 268.681 292.441 268.282 292.441 267.843C292.441 267.404 292.334 267.005 292.119 266.646C291.909 266.282 291.624 265.995 291.265 265.785C290.906 265.57 290.507 265.463 290.068 265.463C289.629 265.463 289.23 265.57 288.871 265.785C288.512 265.995 288.225 266.282 288.01 266.646C287.8 267.005 287.695 267.404 287.695 267.843C287.695 268.277 287.8 268.674 288.01 269.033C288.22 269.392 288.505 269.679 288.864 269.894C289.223 270.104 289.622 270.209 290.061 270.209ZM298.743 271.21C298.113 271.21 297.539 271.058 297.021 270.755C296.507 270.447 296.097 270.032 295.789 269.509C295.485 268.982 295.334 268.389 295.334 267.731V264.238C295.334 263.561 295.485 262.959 295.789 262.432C296.092 261.9 296.505 261.482 297.028 261.179C297.555 260.871 298.152 260.717 298.82 260.717C299.394 260.717 299.926 260.843 300.416 261.095C300.91 261.347 301.314 261.699 301.627 262.152L300.836 262.803C300.621 262.467 300.336 262.199 299.982 261.998C299.627 261.797 299.24 261.697 298.82 261.697C298.348 261.697 297.928 261.811 297.56 262.04C297.191 262.269 296.902 262.57 296.692 262.943C296.482 263.312 296.377 263.713 296.377 264.147V266.345L296.118 266.051C296.412 265.589 296.797 265.216 297.273 264.931C297.753 264.646 298.276 264.504 298.841 264.504C299.466 264.504 300.028 264.653 300.528 264.952C301.027 265.246 301.424 265.645 301.718 266.149C302.012 266.653 302.159 267.218 302.159 267.843C302.159 268.464 302.002 269.028 301.69 269.537C301.382 270.046 300.969 270.452 300.451 270.755C299.937 271.058 299.368 271.21 298.743 271.21ZM298.743 270.209C299.181 270.209 299.58 270.104 299.94 269.894C300.304 269.684 300.591 269.399 300.801 269.04C301.015 268.681 301.123 268.282 301.123 267.843C301.123 267.404 301.015 267.005 300.801 266.646C300.591 266.282 300.306 265.995 299.947 265.785C299.587 265.57 299.188 265.463 298.75 265.463C298.311 265.463 297.912 265.57 297.553 265.785C297.193 265.995 296.906 266.282 296.692 266.646C296.482 267.005 296.377 267.404 296.377 267.843C296.377 268.277 296.482 268.674 296.692 269.033C296.902 269.392 297.186 269.679 297.546 269.894C297.905 270.104 298.304 270.209 298.743 270.209ZM307.305 271.21C306.684 271.21 306.124 271.065 305.625 270.776C305.13 270.487 304.738 270.095 304.449 269.6C304.16 269.101 304.015 268.541 304.015 267.92V264C304.015 263.379 304.16 262.822 304.449 262.327C304.738 261.828 305.13 261.433 305.625 261.144C306.124 260.855 306.684 260.71 307.305 260.71C307.926 260.71 308.483 260.855 308.978 261.144C309.477 261.433 309.872 261.828 310.161 262.327C310.45 262.822 310.595 263.379 310.595 264V267.92C310.595 268.541 310.45 269.101 310.161 269.6C309.872 270.095 309.477 270.487 308.978 270.776C308.483 271.065 307.926 271.21 307.305 271.21ZM307.305 270.216C307.72 270.216 308.098 270.116 308.439 269.915C308.78 269.71 309.05 269.437 309.251 269.096C309.452 268.755 309.552 268.38 309.552 267.969V263.951C309.552 263.536 309.452 263.158 309.251 262.817C309.05 262.476 308.78 262.206 308.439 262.005C308.098 261.8 307.72 261.697 307.305 261.697C306.89 261.697 306.512 261.8 306.171 262.005C305.83 262.206 305.56 262.476 305.359 262.817C305.158 263.158 305.058 263.536 305.058 263.951V267.969C305.058 268.38 305.158 268.755 305.359 269.096C305.56 269.437 305.83 269.71 306.171 269.915C306.512 270.116 306.89 270.216 307.305 270.216ZM315.878 260.717C316.513 260.717 317.087 260.871 317.6 261.179C318.118 261.482 318.529 261.898 318.832 262.425C319.135 262.948 319.287 263.536 319.287 264.189V267.689C319.287 268.361 319.135 268.963 318.832 269.495C318.529 270.027 318.113 270.447 317.586 270.755C317.063 271.058 316.468 271.21 315.801 271.21C315.227 271.21 314.695 271.084 314.205 270.832C313.72 270.575 313.318 270.223 313.001 269.775L313.785 269.124C314 269.455 314.284 269.721 314.639 269.922C314.998 270.123 315.386 270.223 315.801 270.223C316.277 270.223 316.697 270.111 317.061 269.887C317.43 269.658 317.719 269.36 317.929 268.991C318.144 268.618 318.251 268.214 318.251 267.78V265.582L318.503 265.876C318.214 266.338 317.829 266.711 317.348 266.996C316.872 267.281 316.349 267.423 315.78 267.423C315.159 267.423 314.597 267.274 314.093 266.975C313.594 266.676 313.197 266.275 312.903 265.771C312.614 265.267 312.469 264.705 312.469 264.084C312.469 263.463 312.623 262.899 312.931 262.39C313.239 261.877 313.652 261.471 314.17 261.172C314.688 260.869 315.257 260.717 315.878 260.717ZM315.878 261.711C315.439 261.711 315.04 261.818 314.681 262.033C314.322 262.243 314.035 262.528 313.82 262.887C313.61 263.246 313.505 263.645 313.505 264.084C313.505 264.523 313.61 264.922 313.82 265.281C314.03 265.64 314.315 265.927 314.674 266.142C315.033 266.352 315.432 266.457 315.871 266.457C316.31 266.457 316.709 266.352 317.068 266.142C317.432 265.927 317.719 265.64 317.929 265.281C318.144 264.922 318.251 264.523 318.251 264.084C318.251 263.65 318.144 263.253 317.929 262.894C317.719 262.535 317.434 262.248 317.075 262.033C316.716 261.818 316.317 261.711 315.878 261.711ZM323.951 271.203C323.451 271.203 322.992 271.114 322.572 270.937C322.152 270.76 321.79 270.508 321.487 270.181C321.183 269.85 320.962 269.455 320.822 268.998L321.802 268.704C321.97 269.203 322.245 269.581 322.628 269.838C323.015 270.095 323.451 270.218 323.937 270.209C324.385 270.2 324.77 270.099 325.092 269.908C325.418 269.717 325.668 269.451 325.841 269.11C326.013 268.769 326.1 268.375 326.1 267.927C326.1 267.241 325.899 266.69 325.498 266.275C325.101 265.855 324.576 265.645 323.923 265.645C323.741 265.645 323.549 265.671 323.349 265.722C323.148 265.769 322.961 265.836 322.789 265.925L322.271 265.106L326.191 261.487L326.359 261.907H321.221V260.92H327.045V261.921L323.629 265.183L323.615 264.777C324.315 264.688 324.931 264.768 325.463 265.015C325.995 265.262 326.41 265.64 326.709 266.149C327.012 266.653 327.164 267.246 327.164 267.927C327.164 268.571 327.024 269.14 326.744 269.635C326.468 270.125 326.088 270.51 325.603 270.79C325.117 271.065 324.567 271.203 323.951 271.203Z" fill="black"/>
<circle cx="10" cy="302" r="10" fill="#248AFD"/>
<path d="M40.98 307V296.92H44.039C44.1463 296.92 44.3283 296.922 44.585 296.927C44.8463 296.932 45.096 296.95 45.334 296.983C46.0993 297.09 46.7387 297.375 47.252 297.837C47.7653 298.299 48.1503 298.887 48.407 299.601C48.6637 300.315 48.792 301.101 48.792 301.96C48.792 302.819 48.6637 303.605 48.407 304.319C48.1503 305.033 47.7653 305.621 47.252 306.083C46.7387 306.545 46.0993 306.83 45.334 306.937C45.1007 306.965 44.851 306.984 44.585 306.993C44.319 306.998 44.137 307 44.039 307H40.98ZM42.044 306.013H44.039C44.2303 306.013 44.4357 306.008 44.655 305.999C44.879 305.985 45.0703 305.962 45.229 305.929C45.817 305.826 46.2907 305.588 46.65 305.215C47.014 304.842 47.28 304.375 47.448 303.815C47.616 303.25 47.7 302.632 47.7 301.96C47.7 301.283 47.616 300.663 47.448 300.098C47.28 299.533 47.014 299.067 46.65 298.698C46.286 298.329 45.8123 298.094 45.229 297.991C45.0703 297.958 44.8767 297.937 44.648 297.928C44.424 297.914 44.221 297.907 44.039 297.907H42.044V306.013ZM53.5853 307.21C52.8479 307.21 52.2086 307.047 51.6673 306.72C51.1306 306.393 50.7129 305.934 50.4143 305.341C50.1156 304.748 49.9663 304.053 49.9663 303.255C49.9663 302.429 50.1133 301.715 50.4073 301.113C50.7013 300.511 51.1143 300.047 51.6463 299.72C52.1829 299.393 52.8153 299.23 53.5433 299.23C54.2899 299.23 54.9269 299.403 55.4543 299.748C55.9816 300.089 56.3806 300.579 56.6513 301.218C56.9219 301.857 57.0456 302.62 57.0223 303.507H55.9723V303.143C55.9536 302.163 55.7413 301.423 55.3353 300.924C54.9339 300.425 54.3459 300.175 53.5713 300.175C52.7593 300.175 52.1363 300.439 51.7023 300.966C51.2729 301.493 51.0583 302.245 51.0583 303.22C51.0583 304.172 51.2729 304.912 51.7023 305.439C52.1363 305.962 52.7499 306.223 53.5433 306.223C54.0846 306.223 54.5559 306.099 54.9573 305.852C55.3633 305.6 55.6829 305.238 55.9163 304.767L56.8753 305.138C56.5766 305.796 56.1356 306.307 55.5523 306.671C54.9736 307.03 54.3179 307.21 53.5853 307.21ZM50.6943 303.507V302.646H56.4693V303.507H50.6943ZM61.3967 307.203C60.51 307.203 59.7797 307.012 59.2057 306.629C58.6364 306.246 58.2864 305.714 58.1557 305.033L59.2057 304.858C59.3177 305.287 59.572 305.63 59.9687 305.887C60.37 306.139 60.8647 306.265 61.4527 306.265C62.0267 306.265 62.4794 306.146 62.8107 305.908C63.142 305.665 63.3077 305.336 63.3077 304.921C63.3077 304.688 63.254 304.499 63.1467 304.354C63.044 304.205 62.8317 304.067 62.5097 303.941C62.1877 303.815 61.707 303.666 61.0677 303.493C60.3817 303.306 59.845 303.12 59.4577 302.933C59.0704 302.746 58.795 302.532 58.6317 302.289C58.4684 302.042 58.3867 301.741 58.3867 301.386C58.3867 300.957 58.508 300.581 58.7507 300.259C58.9934 299.932 59.3294 299.68 59.7587 299.503C60.188 299.321 60.6874 299.23 61.2567 299.23C61.826 299.23 62.3347 299.323 62.7827 299.51C63.2354 299.692 63.5994 299.949 63.8747 300.28C64.15 300.611 64.3134 300.996 64.3647 301.435L63.3147 301.624C63.2447 301.181 63.023 300.831 62.6497 300.574C62.281 300.313 61.812 300.177 61.2427 300.168C60.706 300.154 60.2697 300.257 59.9337 300.476C59.5977 300.691 59.4297 300.978 59.4297 301.337C59.4297 301.538 59.4904 301.71 59.6117 301.855C59.733 301.995 59.9524 302.128 60.2697 302.254C60.5917 302.38 61.049 302.518 61.6417 302.667C62.337 302.844 62.883 303.031 63.2797 303.227C63.6764 303.423 63.9587 303.654 64.1267 303.92C64.2947 304.186 64.3787 304.515 64.3787 304.907C64.3787 305.621 64.1127 306.183 63.5807 306.594C63.0534 307 62.3254 307.203 61.3967 307.203ZM66.0712 298.005V296.85H67.1002V298.005H66.0712ZM66.0712 307V299.44H67.1002V307H66.0712ZM72.2018 310.57C71.8144 310.57 71.4318 310.512 71.0538 310.395C70.6804 310.283 70.3351 310.103 70.0177 309.856C69.7004 309.613 69.4344 309.296 69.2198 308.904L70.1508 308.386C70.3608 308.806 70.6548 309.107 71.0328 309.289C71.4154 309.476 71.8051 309.569 72.2018 309.569C72.7478 309.569 73.1888 309.466 73.5248 309.261C73.8654 309.06 74.1128 308.762 74.2668 308.365C74.4208 307.968 74.4954 307.474 74.4908 306.881V304.865H74.6098V299.44H75.5268V306.895C75.5268 307.11 75.5198 307.315 75.5058 307.511C75.4964 307.712 75.4754 307.908 75.4428 308.099C75.3541 308.664 75.1698 309.128 74.8898 309.492C74.6144 309.856 74.2504 310.127 73.7978 310.304C73.3498 310.481 72.8178 310.57 72.2018 310.57ZM72.1318 307.21C71.4271 307.21 70.8251 307.035 70.3258 306.685C69.8264 306.33 69.4438 305.852 69.1778 305.25C68.9118 304.648 68.7788 303.969 68.7788 303.213C68.7788 302.462 68.9094 301.785 69.1708 301.183C69.4368 300.581 69.8171 300.105 70.3118 299.755C70.8064 299.405 71.3991 299.23 72.0898 299.23C72.7991 299.23 73.3964 299.403 73.8818 299.748C74.3671 300.093 74.7334 300.567 74.9808 301.169C75.2328 301.766 75.3588 302.448 75.3588 303.213C75.3588 303.964 75.2351 304.643 74.9878 305.25C74.7404 305.852 74.3764 306.33 73.8958 306.685C73.4151 307.035 72.8271 307.21 72.1318 307.21ZM72.2368 306.251C72.7734 306.251 73.2168 306.12 73.5668 305.859C73.9168 305.598 74.1781 305.238 74.3508 304.781C74.5234 304.319 74.6098 303.796 74.6098 303.213C74.6098 302.62 74.5234 302.098 74.3508 301.645C74.1781 301.188 73.9168 300.831 73.5668 300.574C73.2214 300.317 72.7851 300.189 72.2578 300.189C71.7164 300.189 71.2684 300.322 70.9138 300.588C70.5591 300.854 70.2954 301.216 70.1228 301.673C69.9548 302.13 69.8708 302.644 69.8708 303.213C69.8708 303.787 69.9571 304.305 70.1298 304.767C70.3071 305.224 70.5708 305.586 70.9208 305.852C71.2708 306.118 71.7094 306.251 72.2368 306.251ZM82.9439 307V303.143C82.9439 302.723 82.9042 302.338 82.8249 301.988C82.7456 301.633 82.6172 301.325 82.4399 301.064C82.2672 300.798 82.0409 300.593 81.7609 300.448C81.4856 300.303 81.1496 300.231 80.7529 300.231C80.3889 300.231 80.0669 300.294 79.7869 300.42C79.5116 300.546 79.2782 300.728 79.0869 300.966C78.9002 301.199 78.7579 301.484 78.6599 301.82C78.5619 302.156 78.5129 302.539 78.5129 302.968L77.7849 302.807C77.7849 302.032 77.9202 301.381 78.1909 300.854C78.4616 300.327 78.8349 299.928 79.3109 299.657C79.7869 299.386 80.3329 299.251 80.9489 299.251C81.4016 299.251 81.7959 299.321 82.1319 299.461C82.4726 299.601 82.7596 299.79 82.9929 300.028C83.2309 300.266 83.4222 300.539 83.5669 300.847C83.7116 301.15 83.8166 301.475 83.8819 301.82C83.9472 302.161 83.9799 302.501 83.9799 302.842V307H82.9439ZM77.4769 307V299.44H78.4079V301.302H78.5129V307H77.4769ZM85.9364 298.005V296.85H86.9654V298.005H85.9364ZM85.9364 307V299.44H86.9654V307H85.9364ZM94.524 307V303.143C94.524 302.723 94.4843 302.338 94.405 301.988C94.3257 301.633 94.1973 301.325 94.02 301.064C93.8473 300.798 93.621 300.593 93.341 300.448C93.0657 300.303 92.7297 300.231 92.333 300.231C91.969 300.231 91.647 300.294 91.367 300.42C91.0917 300.546 90.8583 300.728 90.667 300.966C90.4803 301.199 90.338 301.484 90.24 301.82C90.142 302.156 90.093 302.539 90.093 302.968L89.365 302.807C89.365 302.032 89.5003 301.381 89.771 300.854C90.0417 300.327 90.415 299.928 90.891 299.657C91.367 299.386 91.913 299.251 92.529 299.251C92.9817 299.251 93.376 299.321 93.712 299.461C94.0527 299.601 94.3397 299.79 94.573 300.028C94.811 300.266 95.0023 300.539 95.147 300.847C95.2917 301.15 95.3967 301.475 95.462 301.82C95.5273 302.161 95.56 302.501 95.56 302.842V307H94.524ZM89.057 307V299.44H89.988V301.302H90.093V307H89.057ZM100.379 310.57C99.9922 310.57 99.6095 310.512 99.2315 310.395C98.8582 310.283 98.5128 310.103 98.1955 309.856C97.8782 309.613 97.6122 309.296 97.3975 308.904L98.3285 308.386C98.5385 308.806 98.8325 309.107 99.2105 309.289C99.5932 309.476 99.9828 309.569 100.379 309.569C100.925 309.569 101.366 309.466 101.702 309.261C102.043 309.06 102.29 308.762 102.444 308.365C102.598 307.968 102.673 307.474 102.668 306.881V304.865H102.787V299.44H103.704V306.895C103.704 307.11 103.697 307.315 103.683 307.511C103.674 307.712 103.653 307.908 103.62 308.099C103.532 308.664 103.347 309.128 103.067 309.492C102.792 309.856 102.428 310.127 101.975 310.304C101.527 310.481 100.995 310.57 100.379 310.57ZM100.309 307.21C99.6048 307.21 99.0028 307.035 98.5035 306.685C98.0042 306.33 97.6215 305.852 97.3555 305.25C97.0895 304.648 96.9565 303.969 96.9565 303.213C96.9565 302.462 97.0872 301.785 97.3485 301.183C97.6145 300.581 97.9948 300.105 98.4895 299.755C98.9842 299.405 99.5768 299.23 100.267 299.23C100.977 299.23 101.574 299.403 102.059 299.748C102.545 300.093 102.911 300.567 103.158 301.169C103.41 301.766 103.536 302.448 103.536 303.213C103.536 303.964 103.413 304.643 103.165 305.25C102.918 305.852 102.554 306.33 102.073 306.685C101.593 307.035 101.005 307.21 100.309 307.21ZM100.414 306.251C100.951 306.251 101.394 306.12 101.744 305.859C102.094 305.598 102.356 305.238 102.528 304.781C102.701 304.319 102.787 303.796 102.787 303.213C102.787 302.62 102.701 302.098 102.528 301.645C102.356 301.188 102.094 300.831 101.744 300.574C101.399 300.317 100.963 300.189 100.435 300.189C99.8942 300.189 99.4462 300.322 99.0915 300.588C98.7368 300.854 98.4732 301.216 98.3005 301.673C98.1325 302.13 98.0485 302.644 98.0485 303.213C98.0485 303.787 98.1348 304.305 98.3075 304.767C98.4848 305.224 98.7485 305.586 99.0985 305.852C99.4485 306.118 99.8872 306.251 100.414 306.251Z" fill="black"/>
<path d="M290.728 307.203C290.229 307.203 289.769 307.114 289.349 306.937C288.929 306.76 288.567 306.508 288.264 306.181C287.961 305.85 287.739 305.455 287.599 304.998L288.579 304.704C288.747 305.203 289.022 305.581 289.405 305.838C289.792 306.095 290.229 306.218 290.714 306.209C291.162 306.2 291.547 306.099 291.869 305.908C292.196 305.717 292.445 305.451 292.618 305.11C292.791 304.769 292.877 304.375 292.877 303.927C292.877 303.241 292.676 302.69 292.275 302.275C291.878 301.855 291.353 301.645 290.7 301.645C290.518 301.645 290.327 301.671 290.126 301.722C289.925 301.769 289.739 301.836 289.566 301.925L289.048 301.106L292.968 297.487L293.136 297.907H287.998V296.92H293.822V297.921L290.406 301.183L290.392 300.777C291.092 300.688 291.708 300.768 292.24 301.015C292.772 301.262 293.187 301.64 293.486 302.149C293.789 302.653 293.941 303.246 293.941 303.927C293.941 304.571 293.801 305.14 293.521 305.635C293.246 306.125 292.865 306.51 292.38 306.79C291.895 307.065 291.344 307.203 290.728 307.203ZM299.075 296.717C299.71 296.717 300.284 296.871 300.797 297.179C301.315 297.482 301.726 297.898 302.029 298.425C302.333 298.948 302.484 299.536 302.484 300.189V303.689C302.484 304.361 302.333 304.963 302.029 305.495C301.726 306.027 301.311 306.447 300.783 306.755C300.261 307.058 299.666 307.21 298.998 307.21C298.424 307.21 297.892 307.084 297.402 306.832C296.917 306.575 296.516 306.223 296.198 305.775L296.982 305.124C297.197 305.455 297.482 305.721 297.836 305.922C298.196 306.123 298.583 306.223 298.998 306.223C299.474 306.223 299.894 306.111 300.258 305.887C300.627 305.658 300.916 305.36 301.126 304.991C301.341 304.618 301.448 304.214 301.448 303.78V301.582L301.7 301.876C301.411 302.338 301.026 302.711 300.545 302.996C300.069 303.281 299.547 303.423 298.977 303.423C298.357 303.423 297.794 303.274 297.29 302.975C296.791 302.676 296.394 302.275 296.1 301.771C295.811 301.267 295.666 300.705 295.666 300.084C295.666 299.463 295.82 298.899 296.128 298.39C296.436 297.877 296.849 297.471 297.367 297.172C297.885 296.869 298.455 296.717 299.075 296.717ZM299.075 297.711C298.637 297.711 298.238 297.818 297.878 298.033C297.519 298.243 297.232 298.528 297.017 298.887C296.807 299.246 296.702 299.645 296.702 300.084C296.702 300.523 296.807 300.922 297.017 301.281C297.227 301.64 297.512 301.927 297.871 302.142C298.231 302.352 298.63 302.457 299.068 302.457C299.507 302.457 299.906 302.352 300.265 302.142C300.629 301.927 300.916 301.64 301.126 301.281C301.341 300.922 301.448 300.523 301.448 300.084C301.448 299.65 301.341 299.253 301.126 298.894C300.916 298.535 300.632 298.248 300.272 298.033C299.913 297.818 299.514 297.711 299.075 297.711ZM307.512 307.21C306.882 307.21 306.324 307.084 305.839 306.832C305.358 306.58 304.98 306.228 304.705 305.775C304.434 305.318 304.299 304.783 304.299 304.172C304.299 303.547 304.451 302.991 304.754 302.506C305.057 302.016 305.519 301.645 306.14 301.393L306.126 301.799C305.608 301.608 305.214 301.295 304.943 300.861C304.672 300.427 304.537 299.946 304.537 299.419C304.537 298.859 304.665 298.378 304.922 297.977C305.179 297.571 305.529 297.258 305.972 297.039C306.42 296.82 306.933 296.71 307.512 296.71C308.091 296.71 308.604 296.82 309.052 297.039C309.5 297.258 309.852 297.571 310.109 297.977C310.366 298.378 310.494 298.859 310.494 299.419C310.494 299.946 310.363 300.425 310.102 300.854C309.845 301.283 309.451 301.598 308.919 301.799L308.884 301.393C309.505 301.64 309.969 302.009 310.277 302.499C310.59 302.989 310.746 303.547 310.746 304.172C310.746 304.783 310.608 305.318 310.333 305.775C310.058 306.228 309.677 306.58 309.192 306.832C308.707 307.084 308.147 307.21 307.512 307.21ZM307.512 306.223C308.147 306.223 308.662 306.048 309.059 305.698C309.456 305.343 309.654 304.835 309.654 304.172C309.654 303.5 309.458 302.991 309.066 302.646C308.674 302.296 308.156 302.121 307.512 302.121C306.868 302.121 306.352 302.296 305.965 302.646C305.578 302.991 305.384 303.5 305.384 304.172C305.384 304.835 305.58 305.343 305.972 305.698C306.364 306.048 306.877 306.223 307.512 306.223ZM307.512 301.127C308.072 301.127 308.527 300.985 308.877 300.7C309.227 300.411 309.402 299.984 309.402 299.419C309.402 298.854 309.227 298.432 308.877 298.152C308.527 297.867 308.072 297.725 307.512 297.725C306.952 297.725 306.497 297.867 306.147 298.152C305.802 298.432 305.629 298.854 305.629 299.419C305.629 299.984 305.802 300.411 306.147 300.7C306.497 300.985 306.952 301.127 307.512 301.127ZM315.269 307.203C314.77 307.203 314.31 307.114 313.89 306.937C313.47 306.76 313.108 306.508 312.805 306.181C312.502 305.85 312.28 305.455 312.14 304.998L313.12 304.704C313.288 305.203 313.563 305.581 313.946 305.838C314.333 306.095 314.77 306.218 315.255 306.209C315.703 306.2 316.088 306.099 316.41 305.908C316.737 305.717 316.986 305.451 317.159 305.11C317.332 304.769 317.418 304.375 317.418 303.927C317.418 303.241 317.217 302.69 316.816 302.275C316.419 301.855 315.894 301.645 315.241 301.645C315.059 301.645 314.868 301.671 314.667 301.722C314.466 301.769 314.28 301.836 314.107 301.925L313.589 301.106L317.509 297.487L317.677 297.907H312.539V296.92H318.363V297.921L314.947 301.183L314.933 300.777C315.633 300.688 316.249 300.768 316.781 301.015C317.313 301.262 317.728 301.64 318.027 302.149C318.33 302.653 318.482 303.246 318.482 303.927C318.482 304.571 318.342 305.14 318.062 305.635C317.787 306.125 317.406 306.51 316.921 306.79C316.436 307.065 315.885 307.203 315.269 307.203ZM323.707 307.21C323.077 307.21 322.503 307.058 321.985 306.755C321.472 306.447 321.061 306.032 320.753 305.509C320.45 304.982 320.298 304.389 320.298 303.731V300.238C320.298 299.561 320.45 298.959 320.753 298.432C321.057 297.9 321.47 297.482 321.992 297.179C322.52 296.871 323.117 296.717 323.784 296.717C324.358 296.717 324.89 296.843 325.38 297.095C325.875 297.347 326.279 297.699 326.591 298.152L325.8 298.803C325.586 298.467 325.301 298.199 324.946 297.998C324.592 297.797 324.204 297.697 323.784 297.697C323.313 297.697 322.893 297.811 322.524 298.04C322.156 298.269 321.866 298.57 321.656 298.943C321.446 299.312 321.341 299.713 321.341 300.147V302.345L321.082 302.051C321.376 301.589 321.761 301.216 322.237 300.931C322.718 300.646 323.241 300.504 323.805 300.504C324.431 300.504 324.993 300.653 325.492 300.952C325.992 301.246 326.388 301.645 326.682 302.149C326.976 302.653 327.123 303.218 327.123 303.843C327.123 304.464 326.967 305.028 326.654 305.537C326.346 306.046 325.933 306.452 325.415 306.755C324.902 307.058 324.333 307.21 323.707 307.21ZM323.707 306.209C324.146 306.209 324.545 306.104 324.904 305.894C325.268 305.684 325.555 305.399 325.765 305.04C325.98 304.681 326.087 304.282 326.087 303.843C326.087 303.404 325.98 303.005 325.765 302.646C325.555 302.282 325.271 301.995 324.911 301.785C324.552 301.57 324.153 301.463 323.714 301.463C323.276 301.463 322.877 301.57 322.517 301.785C322.158 301.995 321.871 302.282 321.656 302.646C321.446 303.005 321.341 303.404 321.341 303.843C321.341 304.277 321.446 304.674 321.656 305.033C321.866 305.392 322.151 305.679 322.51 305.894C322.87 306.104 323.269 306.209 323.707 306.209Z" fill="black"/>
</svg>
