<svg width="60" height="60" viewBox="0 0 60 60" fill="none" xmlns="http://www.w3.org/2000/svg">
<path fill-rule="evenodd" clip-rule="evenodd" d="M11.941 55.6214L16.4752 43.7762L19.4679 43.7266L23.8975 55.0159L28.422 43.8161L31.4179 43.8356L35.6424 54.9797L39.4936 50.2972L35.9505 43.8663L39.2144 43.8775L41.4615 47.7936L44.4339 43.8746L47.356 43.9136L43.8832 49.737L47.356 55.7576H44.316L41.4364 51.6461L38.9583 55.6189L33.0989 55.6016L31.9364 52.7604L27.8978 52.6651L26.6241 56L21.0845 55.7576L20.1261 52.621L15.8344 52.701L14.9694 55.5293L11.941 55.6214ZM16.2047 50.8973L19.6389 50.8865L17.9373 46.4364L16.2047 50.8973ZM28.08 50.8017H31.4218L30 46.3382L28.08 50.8017ZM30 42.0019C19.5065 42.0019 11 33.495 11 23.001C11 12.5072 19.5065 4 30 4C40.4935 4 49 12.5069 49 23.001C49 33.4947 40.4935 42.0019 30 42.0019ZM18.4873 34.633L20.7744 36.7464L23.7026 38.0881L26.2815 39.013L29.8722 39.4214L33.3179 39.013L36.1731 38.0631L39.2752 36.4395L41.2567 34.6793L40.46 34.123L38.721 32.5691L36.9389 30.6404L35.8675 28.8771L34.6147 26.9894L33.3179 25.0495L31.9708 23.4074L29.8722 22.7919L27.5996 23.4074L26.2815 25.0495L24.7132 27.7375L22.9194 30.4732L20.947 32.829L18.4876 34.633H18.4873ZM14.6216 27.2883C14.6193 27.9949 14.8438 29.0974 15.1201 29.7439L14.8303 29.0654C15.1079 29.7148 15.8833 30.407 16.1384 30.4838L15.333 30.2411C15.7777 30.3754 16.5641 30.0985 17.0913 29.6208L17.1254 29.5901C17.6516 29.1137 18.3659 28.2331 18.7237 27.6189L19.6334 26.057C20.0671 25.3201 20.5168 24.5926 20.9824 23.8751L21.6535 22.851C22.0422 22.2579 22.7426 21.3524 23.2209 20.8245L23.5165 20.4987C23.9934 19.9727 24.8771 19.2549 25.4896 18.8959L25.9791 18.6091C26.5919 18.25 27.6472 17.8081 28.3322 17.6233L28.3615 17.6153C29.0484 17.4299 30.18 17.3375 30.8843 17.4085L30.4718 17.3669C31.1783 17.4379 32.3 17.6719 32.9778 17.8897L33.3031 17.9942C33.9803 18.2116 34.9751 18.7523 35.5264 19.2028L35.5866 19.2521C36.137 19.7019 36.9472 20.5118 37.3949 21.0599L37.449 21.1257C37.8972 21.6741 38.5745 22.5991 38.9619 23.1912L39.0398 23.3108C39.4272 23.9029 39.9963 24.8951 40.3128 25.5291L40.3334 25.5701C40.7186 26.3324 41.1229 27.0851 41.5459 27.8274L41.5926 27.9083C41.9465 28.5219 42.6118 29.4472 43.0842 29.9808L42.6914 29.5364C43.1612 30.0678 44.1067 30.6065 44.8039 30.7405L43.5422 30.4981C44.2391 30.6321 45.009 30.2056 45.2618 29.5473L45.0689 30.0492C45.3217 29.3906 45.6067 28.2885 45.7059 27.5869L45.8363 26.6639C45.9352 25.963 45.9465 24.8247 45.8621 24.1252L45.8202 23.7798C45.7359 23.0787 45.4811 21.9692 45.2522 21.3029L44.9926 20.548C44.7633 19.881 44.2345 18.8802 43.8101 18.3108L44.1698 18.7936C43.6604 18.1074 43.1579 17.4162 42.6624 16.7201L43.0234 17.2297C42.615 16.6532 41.8438 15.8181 41.2979 15.3618L41.7059 15.7027C41.05 15.1529 40.3978 14.5987 39.7496 14.04L40.0136 14.2683C39.4781 13.8047 38.5265 13.1803 37.8827 12.8701L37.9742 12.9142C37.3334 12.6054 36.2719 12.1501 35.6089 11.8994L36.0359 12.0609C35.3706 11.8089 34.2669 11.4882 33.5707 11.3437L34.1938 11.4729C33.4976 11.329 32.3589 11.203 31.6453 11.1918L29.0371 11.1512C28.3254 11.14 27.1845 11.2539 26.4882 11.4051L26.3478 11.4358C25.6516 11.587 24.5605 11.9477 23.9139 12.2402L24.537 11.9582C23.8894 12.2514 22.8792 12.8014 22.2821 13.1863L21.0114 14.0052C20.4137 14.3902 19.5468 15.1329 19.076 15.663L18.9581 15.7951C18.3933 16.4377 17.8457 17.095 17.3157 17.7662L16.4945 18.8182C16.0585 19.3764 15.4978 20.3609 15.2402 21.0218L15.5961 20.1093C15.3391 20.7679 15.0035 21.8627 14.8477 22.5492L14.9295 22.1885C14.773 22.8772 14.6425 24.0078 14.638 24.716L14.63 25.9221C14.6255 26.6293 14.62 27.7737 14.6177 28.4825L14.6216 27.2883Z" fill="#33297C"/>
</svg>
