<svg width="40" height="40" viewBox="0 0 40 40" fill="none" xmlns="http://www.w3.org/2000/svg">
<path d="M14 18.9286C14 18.6444 14.1054 18.3719 14.2929 18.171C14.4804 17.97 14.7348 17.8571 15 17.8571H21C21.2652 17.8571 21.5196 17.97 21.7071 18.171C21.8946 18.3719 22 18.6444 22 18.9286C22 19.2127 21.8946 19.4853 21.7071 19.6862C21.5196 19.8871 21.2652 20 21 20H15C14.7348 20 14.4804 19.8871 14.2929 19.6862C14.1054 19.4853 14 19.2127 14 18.9286ZM14 25.3571C14 25.073 14.1054 24.8005 14.2929 24.5995C14.4804 24.3986 14.7348 24.2857 15 24.2857H21C21.2652 24.2857 21.5196 24.3986 21.7071 24.5995C21.8946 24.8005 22 25.073 22 25.3571C22 25.6413 21.8946 25.9138 21.7071 26.1148C21.5196 26.3157 21.2652 26.4286 21 26.4286H15C14.7348 26.4286 14.4804 26.3157 14.2929 26.1148C14.1054 25.9138 14 25.6413 14 25.3571ZM25 20C25.2652 20 25.5196 19.8871 25.7071 19.6862C25.8946 19.4853 26 19.2127 26 18.9286C26 18.6444 25.8946 18.3719 25.7071 18.171C25.5196 17.97 25.2652 17.8571 25 17.8571C24.7348 17.8571 24.4804 17.97 24.2929 18.171C24.1054 18.3719 24 18.6444 24 18.9286C24 19.2127 24.1054 19.4853 24.2929 19.6862C24.4804 19.8871 24.7348 20 25 20ZM25 26.4286C25.2652 26.4286 25.5196 26.3157 25.7071 26.1148C25.8946 25.9138 26 25.6413 26 25.3571C26 25.073 25.8946 24.8005 25.7071 24.5995C25.5196 24.3986 25.2652 24.2857 25 24.2857C24.7348 24.2857 24.4804 24.3986 24.2929 24.5995C24.1054 24.8005 24 25.073 24 25.3571C24 25.6413 24.1054 25.9138 24.2929 26.1148C24.4804 26.3157 24.7348 26.4286 25 26.4286ZM14.17 7.14286C14.3769 6.5159 14.7602 5.97313 15.267 5.58935C15.7739 5.20556 16.3793 4.99965 17 5H23C23.6207 4.99965 24.2261 5.20556 24.733 5.58935C25.2398 5.97313 25.6231 6.5159 25.83 7.14286H27C27.7956 7.14286 28.5587 7.4815 29.1213 8.0843C29.6839 8.6871 30 9.50466 30 10.3571V31.7857C30 32.6382 29.6839 33.4558 29.1213 34.0586C28.5587 34.6614 27.7956 35 27 35H13C12.2044 35 11.4413 34.6614 10.8787 34.0586C10.3161 33.4558 10 32.6382 10 31.7857V10.3571C10 9.50466 10.3161 8.6871 10.8787 8.0843C11.4413 7.4815 12.2044 7.14286 13 7.14286H14.17ZM17 7.14286C16.7348 7.14286 16.4804 7.25574 16.2929 7.45667C16.1054 7.6576 16 7.93013 16 8.21429C16 8.49845 16.1054 8.77097 16.2929 8.9719C16.4804 9.17283 16.7348 9.28571 17 9.28571H23C23.2652 9.28571 23.5196 9.17283 23.7071 8.9719C23.8946 8.77097 24 8.49845 24 8.21429C24 7.93013 23.8946 7.6576 23.7071 7.45667C23.5196 7.25574 23.2652 7.14286 23 7.14286H17ZM14.17 9.28571H13C12.7348 9.28571 12.4804 9.3986 12.2929 9.59953C12.1054 9.80046 12 10.073 12 10.3571V31.7857C12 32.0699 12.1054 32.3424 12.2929 32.5433C12.4804 32.7443 12.7348 32.8571 13 32.8571H27C27.2652 32.8571 27.5196 32.7443 27.7071 32.5433C27.8946 32.3424 28 32.0699 28 31.7857V10.3571C28 10.073 27.8946 9.80046 27.7071 9.59953C27.5196 9.3986 27.2652 9.28571 27 9.28571H25.83C25.6231 9.91267 25.2398 10.4554 24.733 10.8392C24.2261 11.223 23.6207 11.4289 23 11.4286H17C16.3793 11.4289 15.7739 11.223 15.267 10.8392C14.7602 10.4554 14.3769 9.91267 14.17 9.28571Z" fill="black"/>
</svg>
