<svg width="40" height="40" viewBox="0 0 40 40" fill="none" xmlns="http://www.w3.org/2000/svg">
<path d="M5.34991 31.4285H33.6833V33.3333H5.34991V31.4285ZM30.6475 15.2378C30.9159 15.2378 31.1733 15.1375 31.3631 14.9589C31.5528 14.7803 31.6594 14.538 31.6594 14.2854V11.4282C31.6594 11.2325 31.5952 11.0416 31.4757 10.8814C31.3562 10.7212 31.1872 10.5995 30.9916 10.533L19.8606 6.72341C19.6383 6.64776 19.3949 6.64776 19.1725 6.72341L8.04158 10.533C7.84601 10.5995 7.67697 10.7212 7.55747 10.8814C7.43797 11.0416 7.37381 11.2325 7.37372 11.4282V14.2854C7.37372 14.538 7.48034 14.7803 7.6701 14.9589C7.85987 15.1375 8.11726 15.2378 8.38563 15.2378H9.39753V27.619H7.37372V29.5238H31.6594V27.619H29.6356V15.2378H30.6475ZM9.39753 12.0949L19.5166 8.6282L29.6356 12.0949V13.333H9.39753V12.0949ZM21.5404 27.619H17.4928V15.2378H21.5404V27.619ZM11.4213 15.2378H15.469V27.619H11.4213V15.2378ZM27.6118 27.619H23.5642V15.2378H27.6118V27.619Z" fill="#222222"/>
</svg>
