<svg width="50" height="50" viewBox="0 0 50 50" fill="none" xmlns="http://www.w3.org/2000/svg">
<rect width="50" height="50" rx="6" fill="#F95F53"/>
<path fill-rule="evenodd" clip-rule="evenodd" d="M12.25 12.25H34.2083V15.7917H32.7917V13.6667H13.6667V29.9583H28.8158V31.375H12.25V12.25ZM33.5 21.4583C34.0636 21.4583 34.6041 21.2345 35.0026 20.8359C35.4011 20.4374 35.625 19.8969 35.625 19.3333C35.625 18.7697 35.4011 18.2292 35.0026 17.8307C34.6041 17.4322 34.0636 17.2083 33.5 17.2083C32.9364 17.2083 32.3959 17.4322 31.9974 17.8307C31.5989 18.2292 31.375 18.7697 31.375 19.3333C31.375 19.8969 31.5989 20.4374 31.9974 20.8359C32.3959 21.2345 32.9364 21.4583 33.5 21.4583ZM34.9386 22.8821C35.8587 22.8821 36.5869 23.2957 37.0636 23.9347C37.5092 24.5332 37.6976 25.2734 37.7401 25.957C37.7817 26.6581 37.6862 27.3607 37.4589 28.0253C37.2464 28.6415 36.8872 29.279 36.3333 29.7161V36.6875C36.3338 36.9545 36.2339 37.2118 36.0532 37.4084C35.8726 37.605 35.6246 37.7264 35.3586 37.7484C35.0926 37.7705 34.828 37.6916 34.6175 37.5274C34.4069 37.3632 34.2659 37.1259 34.2225 36.8625L33.3087 31.375H33.0977L32.0649 36.883C32.0159 37.143 31.8716 37.3753 31.6604 37.5345C31.4491 37.6937 31.1861 37.7684 30.9227 37.744C30.6592 37.7195 30.4144 37.5977 30.2361 37.4023C30.0577 37.2069 29.9587 36.952 29.9583 36.6875V26.5817C29.8167 26.7975 29.6769 27.0145 29.539 27.2327L29.4837 27.3198L29.4696 27.3425L29.466 27.3488C29.3706 27.5021 29.2376 27.6285 29.0797 27.7162C28.9218 27.8038 28.7442 27.8497 28.5636 27.8496H25.022C24.7402 27.8496 24.4699 27.7377 24.2707 27.5384C24.0714 27.3392 23.9595 27.0689 23.9595 26.7871C23.9595 26.5053 24.0714 26.2351 24.2707 26.0358C24.4699 25.8366 24.7402 25.7246 25.022 25.7246H27.9807C28.1528 25.4583 28.3795 25.1126 28.6175 24.7655C28.8654 24.4036 29.1388 24.0204 29.3825 23.72C29.5007 23.5734 29.6332 23.4204 29.7664 23.295C29.8315 23.2334 29.9222 23.1534 30.0327 23.0825C30.2277 22.9545 30.4554 22.8852 30.6886 22.8828H34.9386V22.8821Z" fill="white"/>
</svg>
