<svg width="60" height="60" viewBox="0 0 60 60" fill="none" xmlns="http://www.w3.org/2000/svg">
<rect width="60" height="60" rx="6" fill="#33297C"/>
<path d="M37.5174 28.125C38.0614 28.2812 38.5793 28.4933 39.0712 28.7612C39.5631 29.029 40.0781 29.4364 40.6163 29.9833C41.1545 30.5301 41.6146 31.1747 41.9965 31.9169C42.3785 32.659 42.6968 33.6189 42.9514 34.7963C43.206 35.9738 43.3334 37.2935 43.3334 38.7556C43.3334 40.4743 42.7547 41.9448 41.5972 43.1669C40.4398 44.389 39.0452 45 37.4132 45H22.5868C20.9549 45 19.5602 44.389 18.4028 43.1669C17.2454 41.9448 16.6667 40.4743 16.6667 38.7556C16.6667 37.2935 16.794 35.9738 17.0486 34.7963C17.3033 33.6189 17.6215 32.659 18.0035 31.9169C18.3854 31.1747 18.8455 30.5301 19.3837 29.9833C19.9219 29.4364 20.4369 29.029 20.9288 28.7612C21.4207 28.4933 21.9387 28.2812 22.4827 28.125C21.5683 26.7299 21.1111 25.2121 21.1111 23.5714C21.1111 22.4107 21.3455 21.303 21.8143 20.2483C22.283 19.1936 22.9167 18.2812 23.7153 17.5112C24.5139 16.7411 25.4601 16.13 26.5538 15.678C27.6476 15.226 28.7963 15 30 15C31.2037 15 32.3525 15.226 33.4462 15.678C34.54 16.13 35.4861 16.7411 36.2847 17.5112C37.0834 18.2812 37.717 19.1936 38.1858 20.2483C38.6545 21.303 38.8889 22.4107 38.8889 23.5714C38.8889 25.2121 38.4317 26.7299 37.5174 28.125ZM30 17.1429C28.1597 17.1429 26.5886 17.7706 25.2865 19.0262C23.9844 20.2818 23.3334 21.7969 23.3334 23.5714C23.3334 25.346 23.9844 26.861 25.2865 28.1166C26.5886 29.3722 28.1597 30 30 30C31.8403 30 33.4115 29.3722 34.7136 28.1166C36.0156 26.861 36.6667 25.346 36.6667 23.5714C36.6667 21.7969 36.0156 20.2818 34.7136 19.0262C33.4115 17.7706 31.8403 17.1429 30 17.1429ZM37.4132 42.8571C38.4317 42.8571 39.3027 42.4581 40.0261 41.6602C40.7494 40.8622 41.1111 39.894 41.1111 38.7556C41.1111 36.0882 40.6569 33.9844 39.7483 32.4442C38.8397 30.904 37.5347 30.0949 35.8334 30.0167C34.1551 31.4342 32.2107 32.1429 30 32.1429C27.7894 32.1429 25.8449 31.4342 24.1667 30.0167C22.4653 30.0949 21.1603 30.904 20.2518 32.4442C19.3432 33.9844 18.8889 36.0882 18.8889 38.7556C18.8889 39.894 19.2506 40.8622 19.974 41.6602C20.6974 42.4581 21.5683 42.8571 22.5868 42.8571H37.4132Z" fill="white"/>
</svg>
