<svg width="50" height="50" viewBox="0 0 50 50" fill="none" xmlns="http://www.w3.org/2000/svg">
<rect width="50" height="50" rx="6" fill="#F2A745"/>
<path d="M37.75 14.375C37.75 13.8114 37.5261 13.2709 37.1276 12.8724C36.7291 12.4739 36.1886 12.25 35.625 12.25H31.375V10.125H29.25V12.25H20.75V10.125H18.625V12.25H14.375C13.8114 12.25 13.2709 12.4739 12.8724 12.8724C12.4739 13.2709 12.25 13.8114 12.25 14.375V35.625C12.25 36.1886 12.4739 36.7291 12.8724 37.1276C13.2709 37.5261 13.8114 37.75 14.375 37.75H18.625V35.625H14.375V14.375H18.625V16.5H20.75V14.375H29.25V16.5H31.375V14.375H35.625V20.75H37.75V14.375Z" fill="white"/>
<path d="M30.3125 23.9375L33.0208 29.1841L38.8125 30.0246L34.5625 34.1088L35.625 39.875L30.3125 37.1529L25 39.875L26.0625 34.1088L21.8125 30.0246L27.7625 29.1841L30.3125 23.9375Z" fill="white"/>
</svg>
