<svg width="50" height="50" viewBox="0 0 50 50" fill="none" xmlns="http://www.w3.org/2000/svg">
<rect width="50" height="50" rx="6" fill="#1F3BB3"/>
<path d="M18.4739 21.7606H18.7667C18.6962 21.1304 18.7249 20.493 18.8517 19.8717C18.4914 19.9406 18.1191 19.9079 17.7764 19.777C17.4338 19.6462 17.1343 19.4225 16.9117 19.131C16.6891 18.8395 16.5521 18.4917 16.5161 18.1267C16.4801 17.7617 16.5466 17.3938 16.708 17.0645C16.8694 16.7351 17.1193 16.4572 17.4298 16.262C17.7404 16.0667 18.0991 15.9619 18.4659 15.9592C18.8327 15.9564 19.193 16.056 19.5063 16.2466C19.8197 16.4372 20.0738 16.7114 20.24 17.0383C20.661 16.5527 21.1549 16.1353 21.7039 15.8011C21.3375 15.2414 20.832 14.7864 20.237 14.4807C19.6419 14.1751 18.9777 14.0292 18.3093 14.0573C17.6409 14.0855 16.9913 14.2868 16.4241 14.6414C15.8569 14.9961 15.3915 15.492 15.0735 16.0805C14.7555 16.6691 14.5958 17.3302 14.61 17.999C14.6243 18.6678 14.812 19.3215 15.1548 19.8959C15.4976 20.4704 15.9837 20.946 16.5655 21.2762C17.1473 21.6064 17.8049 21.7798 18.4739 21.7794V21.7606Z" fill="white"/>
<path d="M20.2778 25.1322C19.7424 24.5256 19.3317 23.8196 19.0689 23.0544H18.4739C17.3526 23.0139 16.2349 23.2043 15.1903 23.6137C14.1456 24.0231 13.1963 24.6428 12.4011 25.4344L12.1744 25.6989V32.31H14.0633V26.4261C15.3012 25.4035 16.869 24.8664 18.4739 24.915C19.0817 24.9154 19.6873 24.9883 20.2778 25.1322Z" fill="white"/>
<path d="M37.6083 25.3967C36.8238 24.6126 35.8869 23.9976 34.8554 23.5899C33.8239 23.1822 32.7197 22.9903 31.6111 23.0261C31.3089 23.0261 31.0444 23.0261 30.7611 23.0828C30.4843 23.8701 30.0505 24.593 29.4861 25.2078C30.1766 25.0083 30.8924 24.9097 31.6111 24.915C33.2047 24.8628 34.7627 25.3934 35.9933 26.4072V32.3289H37.8822V25.6611L37.6083 25.3967Z" fill="white"/>
<path d="M24.8678 25.2833C25.7028 25.2833 26.519 25.0357 27.2132 24.5719C27.9075 24.108 28.4486 23.4486 28.7681 22.6772C29.0876 21.9058 29.1712 21.057 29.0083 20.2381C28.8454 19.4191 28.4434 18.6669 27.853 18.0765C27.2625 17.4861 26.5103 17.084 25.6914 16.9211C24.8725 16.7582 24.0236 16.8418 23.2522 17.1614C22.4808 17.4809 21.8215 18.022 21.3576 18.7162C20.8937 19.4105 20.6461 20.2267 20.6461 21.0617C20.6461 22.1813 21.0909 23.2551 21.8826 24.0468C22.6743 24.8386 23.7481 25.2833 24.8678 25.2833ZM24.8678 18.7383C25.3292 18.7383 25.7802 18.8751 26.1638 19.1315C26.5474 19.3878 26.8464 19.7521 27.023 20.1784C27.1996 20.6047 27.2457 21.0737 27.1557 21.5262C27.0657 21.9787 26.8436 22.3944 26.5173 22.7206C26.1911 23.0469 25.7754 23.2691 25.3229 23.3591C24.8704 23.4491 24.4013 23.4029 23.9751 23.2263C23.5488 23.0498 23.1845 22.7508 22.9282 22.3671C22.6718 21.9835 22.535 21.5325 22.535 21.0711C22.535 20.4524 22.7808 19.8591 23.2183 19.4216C23.6557 18.9841 24.2491 18.7383 24.8678 18.7383Z" fill="white"/>
<path d="M25.0944 26.6339C23.8599 26.5904 22.6294 26.7972 21.477 27.2419C20.3246 27.6867 19.2741 28.3601 18.3889 29.2217L18.1528 29.4861V36.4089C18.1564 36.6044 18.1988 36.7973 18.2773 36.9764C18.3558 37.1556 18.469 37.3174 18.6104 37.4526C18.7517 37.5877 18.9184 37.6936 19.1008 37.7641C19.2832 37.8346 19.4778 37.8684 19.6733 37.8633H30.5061C30.7016 37.8684 30.8962 37.8346 31.0786 37.7641C31.2611 37.6936 31.4277 37.5877 31.5691 37.4526C31.7104 37.3174 31.8236 37.1556 31.9021 36.9764C31.9807 36.7973 32.023 36.6044 32.0267 36.4089V29.4672L31.7906 29.2028C30.9084 28.3408 29.8594 27.6683 28.7079 27.2265C27.5564 26.7848 26.3267 26.5831 25.0944 26.6339ZM30.1283 35.965H20.0228V30.2417C21.4502 29.0749 23.2518 28.4643 25.0944 28.5228C26.9229 28.4613 28.7115 29.0654 30.1283 30.2228V35.965Z" fill="white"/>
<path d="M32.905 19.3333C32.6469 19.5789 32.3246 19.7464 31.9753 19.8166C31.6261 19.8868 31.2641 19.8568 30.9311 19.73C31.0245 20.1582 31.072 20.5951 31.0728 21.0333C31.0838 21.2473 31.0838 21.4616 31.0728 21.6756C31.2506 21.7073 31.4306 21.7262 31.6111 21.7322C32.2206 21.7302 32.8208 21.5835 33.3626 21.3044C33.9044 21.0253 34.3723 20.6217 34.7278 20.1267C34.0857 19.9498 33.472 19.6827 32.905 19.3333Z" fill="white"/>
<path d="M29.675 14.545C29.1056 14.8749 28.6283 15.3426 28.2867 15.905C28.8318 16.2675 29.3162 16.7137 29.7222 17.2272C29.8409 16.9242 30.0322 16.655 30.2795 16.4433C29.9888 15.8425 29.7853 15.2033 29.675 14.545Z" fill="white"/>
<path d="M36.645 18.0772C39.253 18.0772 41.3672 15.963 41.3672 13.355C41.3672 10.747 39.253 8.63278 36.645 8.63278C34.037 8.63278 31.9228 10.747 31.9228 13.355C31.9228 15.963 34.037 18.0772 36.645 18.0772Z" fill="white"/>
</svg>
