<svg width="40" height="40" viewBox="0 0 40 40" fill="none" xmlns="http://www.w3.org/2000/svg">
<path d="M31.6667 9.16138L24.9942 9.16141V7.50019C24.9942 7.03966 24.6213 6.66666 24.1609 6.66666C23.7004 6.66666 23.3275 7.03966 23.3275 7.50019V9.16099H16.6609V7.50019C16.6609 7.03966 16.2879 6.66666 15.8275 6.66666C15.3671 6.66666 14.9942 7.03966 14.9942 7.50019V9.16099H8.33335C7.41294 9.16099 6.66669 9.90742 6.66669 10.828V31.6663C6.66669 32.5869 7.41294 33.3333 8.33335 33.3333H31.6667C32.5871 33.3333 33.3334 32.5869 33.3334 31.6663V10.828C33.3334 9.90781 32.5871 9.16138 31.6667 9.16138ZM31.6667 31.6663H8.33335V10.828H14.9942V11.6678C14.9942 12.1283 15.3671 12.5014 15.8275 12.5014C16.2879 12.5014 16.6609 12.1283 16.6609 11.6678V10.8285H23.3275V11.6682C23.3275 12.1288 23.7004 12.5018 24.1609 12.5018C24.6213 12.5018 24.9942 12.1288 24.9942 11.6682V10.8285H31.6667V31.6663ZM25.8334 19.9973H27.5C27.96 19.9973 28.3334 19.6238 28.3334 19.1637V17.4967C28.3334 17.0366 27.96 16.6631 27.5 16.6631H25.8334C25.3734 16.6631 25 17.0366 25 17.4967V19.1637C25 19.6238 25.3734 19.9973 25.8334 19.9973ZM25.8334 26.6651H27.5C27.96 26.6651 28.3334 26.2921 28.3334 25.8315V24.1645C28.3334 23.7044 27.96 23.331 27.5 23.331H25.8334C25.3734 23.331 25 23.7044 25 24.1645V25.8315C25 26.2925 25.3734 26.6651 25.8334 26.6651ZM20.8334 23.331H19.1667C18.7067 23.331 18.3334 23.7044 18.3334 24.1645V25.8315C18.3334 26.2921 18.7067 26.6651 19.1667 26.6651H20.8334C21.2934 26.6651 21.6667 26.2921 21.6667 25.8315V24.1645C21.6667 23.7048 21.2934 23.331 20.8334 23.331ZM20.8334 16.6631H19.1667C18.7067 16.6631 18.3334 17.0366 18.3334 17.4967V19.1637C18.3334 19.6238 18.7067 19.9973 19.1667 19.9973H20.8334C21.2934 19.9973 21.6667 19.6238 21.6667 19.1637V17.4967C21.6667 17.0361 21.2934 16.6631 20.8334 16.6631ZM14.1667 16.6631H12.5C12.04 16.6631 11.6667 17.0366 11.6667 17.4967V19.1637C11.6667 19.6238 12.04 19.9973 12.5 19.9973H14.1667C14.6267 19.9973 15 19.6238 15 19.1637V17.4967C15 17.0361 14.6267 16.6631 14.1667 16.6631ZM14.1667 23.331H12.5C12.04 23.331 11.6667 23.7044 11.6667 24.1645V25.8315C11.6667 26.2921 12.04 26.6651 12.5 26.6651H14.1667C14.6267 26.6651 15 26.2921 15 25.8315V24.1645C15 23.7048 14.6267 23.331 14.1667 23.331Z" fill="black"/>
</svg>
